<?xml version="1.0" encoding="UTF-8"?>
<svg version="1.1" xmlns="http://www.w3.org/2000/svg" width="500" height="500">
<path d="M0 0 C165 0 330 0 500 0 C500 165 500 330 500 500 C335 500 170 500 0 500 C0 335 0 170 0 0 Z " fill="#181919" transform="translate(0,0)"/>
<path d="M0 0 C4.22875929 2.63455446 7.4455457 5.82736534 10.25 9.9375 C10.65089844 10.52144531 11.05179688 11.10539062 11.46484375 11.70703125 C12.60740048 14.95280186 11.81446739 17.66169851 11.375 21.0625 C10.68062843 33.69783165 19.35475351 43.69550605 26.08691406 53.68457031 C29.29603486 58.51056642 32.2710774 63.46743471 35.25 68.4375 C36.39425794 70.32387319 37.54010826 72.20928132 38.6875 74.09375 C39.265 75.0425 39.8425 75.99125 40.4375 76.96875 C44.363631 83.39948181 48.32233893 89.81021953 52.27587891 96.22412109 C57.3331759 104.43379579 62.35281129 112.66574772 67.35205078 120.91088867 C69.98487445 125.24597562 72.63440705 129.56770718 75.34375 133.85546875 C75.81635254 134.6036084 76.28895508 135.35174805 76.77587891 136.12255859 C77.64892603 137.4992746 78.52595026 138.87347995 79.40771484 140.24462891 C82.25 144.72041128 82.25 144.72041128 82.25 146.9375 C83.075 146.999375 83.9 147.06125 84.75 147.125 C90.83723041 148.53810706 95.47930161 151.50391723 99.1875 156.5625 C102.9955289 162.79382002 102.98721896 168.78562873 102.25 175.9375 C99.78899895 182.77974507 94.05252415 187.67653969 87.9375 191.3125 C80.40635024 193.06393018 74.29810405 192.32308291 67.515625 188.55859375 C62.20309596 184.75738763 58.55901166 179.35165713 57.25 172.9375 C56.99396577 169.0485476 56.86434106 165.34266888 57.90136719 161.56420898 C58.32979924 158.33626745 57.75122466 157.35798436 55.99609375 154.6640625 C55.22011841 153.44553589 55.22011841 153.44553589 54.4284668 152.20239258 C53.85394775 151.33122803 53.27942871 150.46006348 52.6875 149.5625 C51.47280705 147.66349634 50.259305 145.7637305 49.046875 143.86328125 C48.10038086 142.3930249 48.10038086 142.3930249 47.13476562 140.89306641 C44.15825237 136.22549263 41.30020025 131.48790852 38.4375 126.75 C33.46881098 118.56386984 28.46378308 110.40087888 23.4375 102.25 C17.34367895 92.36714374 11.30126379 82.4544808 5.29089355 72.52072144 C0.59076219 64.75294811 -4.14187855 57.00878729 -9.06005859 49.37646484 C-11.75 45.15111969 -11.75 45.15111969 -11.75 42.9375 C-12.78125 42.855 -13.8125 42.7725 -14.875 42.6875 C-21.89990391 41.32784118 -25.57727108 37.38522942 -29.75 31.9375 C-32.96035291 27.12197063 -33.60586995 21.65988632 -32.75 15.9375 C-29.88647306 7.28001434 -25.04434786 3.00264876 -17.375 -1.4375 C-11.20670309 -2.90614212 -5.7192192 -2.93689634 0 0 Z " fill="#FCFCFC" transform="translate(172.75,97.0625)"/>
<path d="M0 0 C5.38607576 3.35557286 9.885442 7.97795788 12.25 13.9375 C13.11693287 21.55844479 12.98276844 28.6417494 8.25 34.9375 C7.57515564 35.43731384 6.90031128 35.93712769 6.20501709 36.4520874 C3.24141934 40.21970827 3.67806856 43.71973497 3.70410156 48.38769531 C3.69376389 49.34412933 3.68342621 50.30056335 3.67277527 51.28598022 C3.64328719 54.44603245 3.6418468 57.60544584 3.640625 60.765625 C3.62564745 62.95710476 3.6089212 65.14857321 3.59051514 67.34002686 C3.54678196 73.10710155 3.52682919 78.87402397 3.51177979 84.64123535 C3.49223031 90.52654039 3.45025785 96.41168046 3.41015625 102.296875 C3.33478939 113.84369919 3.28453705 125.39048657 3.25 136.9375 C2.65251953 136.72528809 2.05503906 136.51307617 1.43945312 136.29443359 C0.64474609 136.01937988 -0.14996094 135.74432617 -0.96875 135.4609375 C-1.75185547 135.18685059 -2.53496094 134.91276367 -3.34179688 134.63037109 C-9.02654154 132.99479675 -14.0035651 133.52624778 -19.53125 135.4609375 C-20.72331055 135.87351807 -20.72331055 135.87351807 -21.93945312 136.29443359 C-22.83567383 136.61275146 -22.83567383 136.61275146 -23.75 136.9375 C-23.75142502 135.71054413 -23.75285004 134.48358826 -23.75431824 133.2194519 C-23.77099063 121.6542491 -23.81377199 110.08939806 -23.88209057 98.52438164 C-23.91637533 92.57870315 -23.94147293 86.63328202 -23.94555664 80.6875 C-23.94983629 74.94900674 -23.97827224 69.21109421 -24.02343178 63.47278214 C-24.0364173 61.2839814 -24.04071076 59.09511121 -24.03615379 56.9062767 C-24.03125552 53.83906161 -24.05730741 50.77354879 -24.09057617 47.70654297 C-24.07763771 46.35031578 -24.07763771 46.35031578 -24.06443787 44.96669006 C-24.17563104 38.84787915 -25.4089834 36.25712918 -29.75 31.9375 C-32.48729641 27.0234457 -33.80991082 21.5224147 -32.75 15.9375 C-29.84660007 7.28106688 -25.06409967 3.01408402 -17.375 -1.4375 C-11.20670309 -2.90614212 -5.7192192 -2.93689634 0 0 Z " fill="#FBFBFB" transform="translate(352.75,97.0625)"/>
<path d="M0 0 C10.12458147 3.37486049 10.12458147 3.37486049 12.29296875 7.09765625 C13.0209668 8.30131836 13.0209668 8.30131836 13.76367188 9.52929688 C14.4684668 10.78323242 14.4684668 10.78323242 15.1875 12.0625 C15.66896484 12.87138672 16.15042969 13.68027344 16.64648438 14.51367188 C17.60303481 16.12584991 18.53757345 17.75133812 19.44715881 19.39047241 C20.89305139 21.96517043 20.89305139 21.96517043 22.57676697 23.93508911 C28.62238101 31.85106591 27.74256938 40.64312467 27.57505417 50.12769508 C27.52261399 53.19266274 27.50989891 56.25557712 27.50747681 59.32096863 C27.49448621 66.92386793 27.42431554 74.52591456 27.33685303 82.1282959 C27.26281302 88.57322306 27.21966714 95.01670029 27.22243118 101.46207237 C27.21108797 104.47950345 27.15351611 107.49386588 27.09506226 110.51069641 C27.09263083 112.3584477 27.09255427 114.2062041 27.09521484 116.05395508 C27.06637711 116.88988693 27.03753937 117.72581879 27.00782776 118.58708191 C27.04092484 120.9750682 27.11365505 122.77671703 28 125 C29.86428325 126.09105707 29.86428325 126.09105707 32.05654907 126.93412781 C33.35788788 127.94586563 34.65922668 128.95760345 36 130 C36 135.94 36 141.88 36 148 C21.15 148 6.3 148 -9 148 C-9 131 -9 131 -5.625 127.4375 C-2 126 -2 126 0 126 C0 84.42 0 42.84 0 0 Z " fill="#FBFBFB" transform="translate(149,141)"/>
<path d="M0 0 C0.66 0 1.32 0 2 0 C3.01866229 1.65532623 4.01810813 3.32260138 5 5 C5.99 5.495 5.99 5.495 7 6 C9.3810521 44.69820187 9.3810521 44.69820187 -3.22949219 59.75634766 C-6.50649305 63.90908317 -9.06721069 68.51340581 -11.75 73.0625 C-12.91904637 74.99650432 -14.09097735 76.92876758 -15.265625 78.859375 C-15.86697266 79.85001953 -16.46832031 80.84066406 -17.08789062 81.86132812 C-21.19667746 88.6057821 -25.3473729 95.32462244 -29.49511719 102.04516602 C-30.12579102 103.06795654 -30.75646484 104.09074707 -31.40625 105.14453125 C-32.01082031 106.12244629 -32.61539062 107.10036133 -33.23828125 108.10791016 C-34.42331523 110.05329715 -35.58713598 112.01174927 -36.73046875 113.98193359 C-37.26285156 114.8992627 -37.79523438 115.8165918 -38.34375 116.76171875 C-38.80974609 117.57987061 -39.27574219 118.39802246 -39.75585938 119.2409668 C-40.16642578 119.82144775 -40.57699219 120.40192871 -41 121 C-41.66 121 -42.32 121 -43 121 C-43.89756951 119.9523451 -44.74374295 118.8603372 -45.5625 117.75 C-49.7125401 112.70044382 -54.95847774 111.01384075 -61 109 C-63 106 -63 106 -62.76660156 104.06420898 C-61.94639393 101.85565627 -60.95700952 99.98686824 -59.734375 97.97265625 C-59.26362549 97.19212891 -58.79287598 96.41160156 -58.30786133 95.60742188 C-57.79376709 94.76759766 -57.27967285 93.92777344 -56.75 93.0625 C-56.21205811 92.17498047 -55.67411621 91.28746094 -55.11987305 90.37304688 C-50.86034468 83.36243178 -46.5408158 76.38883098 -42.20996094 69.42211914 C-37.2177108 61.38206944 -32.30990557 53.29174737 -27.40792847 45.1965332 C-22.08479963 36.40762892 -16.71122407 27.65188288 -11.27416992 18.93286133 C-7.78912816 13.32892312 -4.45438172 7.66782708 -1.26953125 1.88671875 C-0.85058594 1.26410156 -0.43164062 0.64148438 0 0 Z " fill="#FBFBFB" transform="translate(318,131)"/>
<path d="M0 0 C5.61713964 2.01689242 8.97109258 5.68624549 12.08984375 10.64453125 C13 13 13 13 13.125 16.76171875 C13.81415729 23.33962205 19.67308986 26.92119288 24.36132812 31 C29.81204474 36.01485518 29.81204474 36.01485518 30.6796875 40.5625 C30.4621582 42.5625 30.4621582 42.5625 30 45 C29.80946045 46.093125 29.6189209 47.18625 29.42260742 48.3125 C28.69302234 52.22126419 27.88895105 56.11092929 27.0625 60 C26.50746378 62.64497954 25.95819835 65.29105091 25.41015625 67.9375 C25.15508301 69.16726563 24.90000977 70.39703125 24.63720703 71.6640625 C24.11670381 74.38902651 23.71659748 77.05585706 23.43359375 79.8125 C23 83 23 83 21 85 C18.46875 85.046875 18.46875 85.046875 15.5 84.75 C14.5203125 84.66234375 13.540625 84.5746875 12.53125 84.484375 C10 84 10 84 8 82 C7.83949737 79.21562824 7.79577402 76.5213529 7.83203125 73.73828125 C7.82635031 72.04491626 7.81913953 70.35155584 7.81054688 68.65820312 C7.80638264 65.9894159 7.81238019 63.32216521 7.84545898 60.65356445 C8.50939525 49.18298704 8.50939525 49.18298704 3.7578125 39.33203125 C0.92268163 37.24615664 -1.35728282 36.2201154 -4.9375 36.375 C-11.27489205 36.13421763 -15.30061382 33.89642167 -19.60546875 29.27734375 C-23.0428993 24.58818778 -23.7118857 20.29811473 -23.41796875 14.546875 C-22.37048743 8.1640916 -17.86512105 4.70172254 -13 1 C-9.00839821 -0.99580089 -4.33940328 -0.50430903 0 0 Z " fill="#F9F9F9" transform="translate(348,235)"/>
<path d="M0 0 C3.07677228 0.04292263 6.14421412 0.00026452 9.22070312 -0.05078125 C17.8909207 -0.08512846 26.07523688 0.19203835 34.01757812 3.91796875 C39.08007812 9.04296875 39.08007812 9.04296875 39.08007812 28.04296875 C15.32007813 28.04296875 -8.43992188 28.04296875 -32.91992188 28.04296875 C-32.91992188 9.04296875 -32.91992188 9.04296875 -27.85742188 3.91796875 C-19.00471391 -0.2350351 -9.62465471 -0.15969433 0 0 Z " fill="#FBFBFB" transform="translate(159.919921875,291.95703125)"/>
<path d="M0 0 C1.11328125 1.609375 1.11328125 1.609375 2.3125 3.75 C4.83404809 7.96501382 7.55712022 10.77856011 12 13 C10.84826645 15.46800047 9.95216435 17.04783565 8 19 C7.7785235 21.8415284 7.6746756 24.59320603 7.65625 27.4375 C7.6416272 28.27337646 7.62700439 29.10925293 7.61193848 29.97045898 C7.56534455 32.64692413 7.53119122 35.3233136 7.5 38 C7.45896874 41.52111311 7.40534291 45.0416933 7.34375 48.5625 C7.3384729 49.37710693 7.3331958 50.19171387 7.32775879 51.03100586 C7.22560362 56.77439638 7.22560362 56.77439638 5 59 C2.6875 59.484375 2.6875 59.484375 0 59.75 C-1.3303125 59.89695312 -1.3303125 59.89695312 -2.6875 60.046875 C-5 60 -5 60 -7 58 C-7.5509491 56.23661804 -7.5509491 56.23661804 -7.97729492 54.08862305 C-8.14053757 53.28406174 -8.30378021 52.47950043 -8.4719696 51.65055847 C-8.72367668 50.34433281 -8.72367668 50.34433281 -8.98046875 49.01171875 C-9.15757889 48.11636917 -9.33468903 47.22101959 -9.51716614 46.29853821 C-9.88992038 44.40201439 -10.25868418 42.50470259 -10.6237793 40.60668945 C-11.18370869 37.70713305 -11.76188472 34.81163309 -12.34179688 31.91601562 C-12.70163495 30.07313386 -13.06039433 28.23004107 -13.41796875 26.38671875 C-13.59184616 25.52197433 -13.76572357 24.65722992 -13.94487 23.76628113 C-15.42542019 15.92946294 -15.42542019 15.92946294 -14 12 C-12.81665039 10.33081055 -12.81665039 10.33081055 -11.34765625 8.88671875 C-10.81849609 8.36142578 -10.28933594 7.83613281 -9.74414062 7.29492188 C-9.18919922 6.76447266 -8.63425781 6.23402344 -8.0625 5.6875 C-7.51142578 5.13771484 -6.96035156 4.58792969 -6.39257812 4.02148438 C-2.28117236 0 -2.28117236 0 0 0 Z " fill="#FBFBFB" transform="translate(322,260)"/>
<path d="M0 0 C1.03125 0.53625 2.0625 1.0725 3.125 1.625 C4.07375 2.07875 5.0225 2.5325 6 3 C8.0162233 2.28436734 8.0162233 2.28436734 10 1 C16.18894831 -0.43672014 16.18894831 -0.43672014 19.4375 1.3125 C21 3 21 3 21 5 C18.03 4.67 15.06 4.34 12 4 C12.52489327 7.97286174 12.52489327 7.97286174 14.84765625 9.2734375 C15.57855469 9.63695312 16.30945313 10.00046875 17.0625 10.375 C19.2421875 11.640625 19.2421875 11.640625 21 13 C21.73887807 16.35853668 21.62432532 17.89824943 19.9375 20.875 C16.8385295 22.67440223 14.50712967 22.42327427 11 22 C8.0625 20 8.0625 20 6 18 C5.54625 18.474375 5.0925 18.94875 4.625 19.4375 C1.67831013 22.27085564 -0.92867322 22.33305084 -4.9609375 22.2890625 C-8.16544562 21.83478357 -9.82724211 20.30444019 -12 18 C-13.36634081 13.90097756 -13.88555883 10.26810319 -13 6 C-9.72236373 1.3393149 -5.74966487 -1.10099966 0 0 Z " fill="#1E1F1F" transform="translate(369,381)"/>
<path d="M0 0 C3.3 0 6.6 0 10 0 C11.17133058 2.45620851 12.33721722 4.91474917 13.5 7.375 C13.83386719 8.07367188 14.16773437 8.77234375 14.51171875 9.4921875 C17 14.7734375 17 14.7734375 17 17 C17.66 17 18.32 17 19 17 C19.0928125 15.8553125 19.0928125 15.8553125 19.1875 14.6875 C20.34487791 9.43478486 22.67197995 4.8278497 25 0 C28.3 0 31.6 0 35 0 C34.01 0.66 33.02 1.32 32 2 C31.49156938 4.31753588 31.49156938 4.31753588 31.48828125 7.0078125 C31.45283203 7.99394531 31.41738281 8.98007812 31.38085938 9.99609375 C31.35830078 11.02863281 31.33574219 12.06117188 31.3125 13.125 C31.27833984 14.16527344 31.24417969 15.20554687 31.20898438 16.27734375 C31.12632942 18.85145507 31.05723845 21.42521829 31 24 C32.32 24.66 33.64 25.32 35 26 C31.04 26 27.08 26 23 26 C23.66 25.67 24.32 25.34 25 25 C24.67 19.39 24.34 13.78 24 8 C22.14771697 13.2160966 22.14771697 13.2160966 20.32104492 18.44116211 C19.63277625 20.32750202 18.81828877 22.16631641 18 24 C17.01 24.33 16.02 24.66 15 25 C12.36 19.06 9.72 13.12 7 7 C6.67 12.61 6.34 18.22 6 24 C7.65 24.33 9.3 24.66 11 25 C11 25.66 11 26.32 11 27 C7.04 27 3.08 27 -1 27 C-1 26.34 -1 25.68 -1 25 C0.32 24.67 1.64 24.34 3 24 C3.33 16.74 3.66 9.48 4 2 C2.68 1.67 1.36 1.34 0 1 C0 0.67 0 0.34 0 0 Z " fill="#D12B26" transform="translate(113,376)"/>
<path d="M0 0 C0.99 0 1.98 0 3 0 C3.33 2.97 3.66 5.94 4 9 C4.99 8.34 5.98 7.68 7 7 C10.00574088 6.53244031 12.05043034 6.40871704 14.6875 8.05078125 C17.5957574 10.42073139 19.75094829 12.18903828 20.2734375 15.98828125 C20.46972622 20.48027315 20.51482633 22.34969305 17.625 26 C13.52514745 29.12369718 11.16656748 29.2767804 6 29 C5.34 28.34 4.68 27.68 4 27 C2.68 27.33 1.36 27.66 0 28 C0 18.76 0 9.52 0 0 Z " fill="#F2F2F2" transform="translate(287,374)"/>
<path d="M0 0 C3.57527636 2.96671868 5.78247769 5.08580364 6.3125 9.75 C5.91753151 13.85767229 4.5942368 15.82926614 2 19 C-1.41550511 21.59107284 -4.83325464 21.50288306 -9 21 C-11.97239241 19.21523759 -14.42604027 17.14791945 -16 14 C-16.57791538 6.9494324 -16.57791538 6.9494324 -14.25 3.125 C-9.76466603 -1.11114875 -6.03948584 -1.89333088 0 0 Z " fill="#1F2020" transform="translate(326,382)"/>
<path d="M0 0 C3.1875 1.875 3.1875 1.875 5 5 C5.67853216 8.47819006 5.72987755 11.52737948 5 15 C2.80977082 17.82424288 1.16982793 19.41508603 -2 21 C-9.13230769 21.70153846 -9.13230769 21.70153846 -12.9375 18.625 C-15.77185156 15.01764347 -16.43473529 12.76807221 -16.32421875 8.109375 C-15.88761745 5.26883639 -14.8131562 3.15433958 -12.82421875 1.07421875 C-8.8346572 -1.27509479 -4.40623123 -0.85217965 0 0 Z " fill="#1D1E1E" transform="translate(277,382)"/>
<path d="M0 0 C3.96 0 7.92 0 12 0 C16 4 16 4 16.375 7.5625 C16 11 16 11 14 14 C13.34 14 12.68 14 12 14 C12.6496875 15.26457031 12.6496875 15.26457031 13.3125 16.5546875 C13.869375 17.65039062 14.42625 18.74609375 15 19.875 C15.556875 20.96554687 16.11375 22.05609375 16.6875 23.1796875 C18 26 18 26 18 28 C16.171875 27.80859375 16.171875 27.80859375 14 27 C12.515625 24.78515625 12.515625 24.78515625 11.25 22.0625 C10.82203125 21.16660156 10.3940625 20.27070313 9.953125 19.34765625 C9 17 9 17 9 15 C7.35 15 5.7 15 4 15 C4 19.29 4 23.58 4 28 C2.68 28 1.36 28 0 28 C0 18.76 0 9.52 0 0 Z " fill="#DBDBDB" transform="translate(240,375)"/>
<path d="M0 0 C0.68900391 0.00064453 1.37800781 0.00128906 2.08789062 0.00195312 C7.17194475 0.04694475 7.17194475 0.04694475 8.3125 1.1875 C8.35330783 3.18708364 8.35504356 5.18795254 8.3125 7.1875 C7.44625 6.3625 6.58 5.5375 5.6875 4.6875 C3.26697217 2.6722964 2.43245333 2.20429347 -0.8125 1.75 C-4.55677918 2.27112027 -4.55677918 2.27112027 -7.6875 4.1875 C-10.48561918 8.91535655 -11.25829884 12.64915085 -10.3828125 18.09765625 C-9.12512171 21.87779431 -7.07483615 23.27827417 -3.6875 25.1875 C-0.87629389 25.5710757 1.45466439 25.43386514 4.3125 25.1875 C4.3125 22.2175 4.3125 19.2475 4.3125 16.1875 C2.6625 16.1875 1.0125 16.1875 -0.6875 16.1875 C-0.6875 15.5275 -0.6875 14.8675 -0.6875 14.1875 C4.2625 14.1875 9.2125 14.1875 14.3125 14.1875 C13.9825 14.8475 13.6525 15.5075 13.3125 16.1875 C11.9925 16.1875 10.6725 16.1875 9.3125 16.1875 C9.33570313 16.81398438 9.35890625 17.44046875 9.3828125 18.0859375 C9.40988281 19.31183594 9.40988281 19.31183594 9.4375 20.5625 C9.46070313 21.37460937 9.48390625 22.18671875 9.5078125 23.0234375 C9.3125 25.1875 9.3125 25.1875 7.3125 27.1875 C2.27357154 28.85994949 -3.74401439 29.19419396 -8.7890625 27.46875 C-12.70361892 25.40319682 -15.18621019 23.33812476 -16.6875 19.1875 C-17.29071217 14.75490719 -17.74561241 10.31212254 -15.703125 6.2109375 C-11.18857734 0.55381913 -6.9001581 -0.1247412 0 0 Z " fill="#D02B26" transform="translate(182.6875,374.8125)"/>
<path d="M0 0 C3.4375 1 3.4375 1 5.375 2.6875 C6.78339562 5.75283164 6.91522045 7.65595685 6.4375 11 C4.8125 13.875 4.8125 13.875 2.4375 16 C-1.18529473 16.67927401 -2.81923949 16.46942769 -5.9375 14.5 C-8.22012005 10.98827684 -8.37103347 8.07600894 -7.5625 4 C-5.32424706 0.32926518 -4.31620847 0 0 0 Z " fill="#1F2020" transform="translate(297.5625,384)"/>
<path d="M0 0 C3.57527636 2.96671868 5.78247769 5.08580364 6.3125 9.75 C5.91753151 13.85767229 4.5942368 15.82926614 2 19 C-1.41550511 21.59107284 -4.83325464 21.50288306 -9 21 C-11.97239241 19.21523759 -14.42604027 17.14791945 -16 14 C-16.57791538 6.9494324 -16.57791538 6.9494324 -14.25 3.125 C-9.76466603 -1.11114875 -6.03948584 -1.89333088 0 0 Z M-13 7 C-13.71588388 10.81804737 -13.29055839 12.46537255 -11.4375 15.875 C-9.0867841 18.30272738 -9.0867841 18.30272738 -5.5 18.5625 C-2.03220873 18.23395548 -2.03220873 18.23395548 0.4375 16.5 C2.33241656 13.46813351 2.63766746 11.43891992 2.453125 7.90625 C2.08700329 5.70711725 2.08700329 5.70711725 -0.1875 3.5 C-6.09491869 0.3493767 -8.99223249 1.73264842 -13 7 Z " fill="#E0DFDF" transform="translate(326,382)"/>
<path d="M0 0 C3.1875 1.875 3.1875 1.875 5 5 C5.67853216 8.47819006 5.72987755 11.52737948 5 15 C2.80977082 17.82424288 1.16982793 19.41508603 -2 21 C-9.13230769 21.70153846 -9.13230769 21.70153846 -12.9375 18.625 C-15.77185156 15.01764347 -16.43473529 12.76807221 -16.32421875 8.109375 C-15.88761745 5.26883639 -14.8131562 3.15433958 -12.82421875 1.07421875 C-8.8346572 -1.27509479 -4.40623123 -0.85217965 0 0 Z M-13 7 C-13.71588388 10.81804737 -13.29055839 12.46537255 -11.4375 15.875 C-9.0867841 18.30272738 -9.0867841 18.30272738 -5.5 18.5625 C-2.03220873 18.23395548 -2.03220873 18.23395548 0.4375 16.5 C2.33241656 13.46813351 2.63766746 11.43891992 2.453125 7.90625 C2.08700329 5.70711725 2.08700329 5.70711725 -0.1875 3.5 C-6.09491869 0.3493767 -8.99223249 1.73264842 -13 7 Z " fill="#EEEEEE" transform="translate(277,382)"/>
<path d="M0 0 C0.99 0 1.98 0 3 0 C4.28344727 1.58203125 4.28344727 1.58203125 5.56640625 3.8125 C6.28812012 5.04468262 6.28812012 5.04468262 7.02441406 6.30175781 C7.53198242 7.19217773 8.03955078 8.08259766 8.5625 9 C9.63017998 10.82890233 10.69921181 12.65701609 11.76953125 14.484375 C12.30658691 15.40669922 12.84364258 16.32902344 13.39697266 17.27929688 C15.77516525 21.31563228 18.25309981 25.28634773 20.75 29.25 C21.17998291 29.93449219 21.60996582 30.61898437 22.05297852 31.32421875 C23.03363805 32.8838707 24.01653218 34.44211734 25 36 C24.01 36 23.02 36 22 36 C21.566875 35.0409375 21.566875 35.0409375 21.125 34.0625 C20.17176549 31.84793921 20.17176549 31.84793921 18 31 C17.67 31.66 17.34 32.32 17 33 C14.5905272 29.08970022 12.1879964 25.17525371 9.79174805 21.25683594 C8.97592681 19.92494903 8.15823389 18.59420667 7.33862305 17.26464844 C6.15958418 15.35130217 4.98737907 13.43391548 3.81640625 11.515625 C3.44971329 10.92380432 3.08302032 10.33198364 2.70521545 9.722229 C-0.60712424 4.26834065 -0.60712424 4.26834065 -1 1 C-0.67 0.67 -0.34 0.34 0 0 Z " fill="#232424" transform="translate(158,140)"/>
<path d="M0 0 C2.375 1 2.375 1 4 2 C4 2.99 4 3.98 4 5 C3.39671875 4.88140625 2.7934375 4.7628125 2.171875 4.640625 C-2.91645639 3.72464622 -2.91645639 3.72464622 -7.5625 5.5625 C-9.40075846 8.67954696 -9.52028774 10.43231261 -9 14 C-8.02896212 16.46186579 -8.02896212 16.46186579 -6 18 C-2.4516955 18.3774792 0.59750576 18.04692131 4 17 C3.625 18.9375 3.625 18.9375 3 21 C-0.20417721 22.6020886 -3.52339432 22.49285215 -7 22 C-10.44312714 19.8755173 -11.71617547 18.85147359 -13 15 C-13.6675623 11.01738401 -14.05085456 7.49427874 -11.6484375 4.078125 C-7.96088122 0.66672932 -5.14760845 -0.91513039 0 0 Z " fill="#ECECEC" transform="translate(369,381)"/>
<path d="M0 0 C1.11375 0.309375 2.2275 0.61875 3.375 0.9375 C4.035 2.2575 4.695 3.5775 5.375 4.9375 C2.405 4.6075 -0.565 4.2775 -3.625 3.9375 C-3.10010673 7.91036174 -3.10010673 7.91036174 -0.77734375 9.2109375 C-0.04644531 9.57445312 0.68445313 9.93796875 1.4375 10.3125 C3.6171875 11.578125 3.6171875 11.578125 5.375 12.9375 C6.11387807 16.29603668 5.99932532 17.83574943 4.3125 20.8125 C1.30017484 22.56159203 -1.22002627 22.24151551 -4.625 21.9375 C-5.615 21.2775 -6.605 20.6175 -7.625 19.9375 C-7.625 18.9475 -7.625 17.9575 -7.625 16.9375 C-4.655 17.2675 -1.685 17.5975 1.375 17.9375 C1.375 16.6175 1.375 15.2975 1.375 13.9375 C0.80910156 13.72996094 0.24320312 13.52242188 -0.33984375 13.30859375 C-2.64002051 12.34243866 -4.61035502 11.41547423 -6.625 9.9375 C-7.625 6.1875 -7.625 6.1875 -7.625 2.9375 C-4.95306414 0.26556414 -3.86874355 -0.06670248 0 0 Z " fill="#E7E7E7" transform="translate(384.625,381.0625)"/>
<path d="M0 0 C0.01458252 0.71655762 0.02916504 1.43311523 0.04418945 2.17138672 C0.11849 5.40647983 0.21520861 8.64052019 0.3125 11.875 C0.33505859 13.00292969 0.35761719 14.13085938 0.38085938 15.29296875 C0.41630859 16.36933594 0.45175781 17.44570313 0.48828125 18.5546875 C0.51446533 19.54968262 0.54064941 20.54467773 0.56762695 21.56982422 C0.78165161 22.77276123 0.78165161 22.77276123 1 24 C1.99 24.66 2.98 25.32 4 26 C4 26.66 4 27.32 4 28 C0.37 28 -3.26 28 -7 28 C-7 27.34 -7 26.68 -7 26 C-6.01 26 -5.02 26 -4 26 C-4 18.41 -4 10.82 -4 3 C-4.66 3 -5.32 3 -6 3 C-6 2.34 -6 1.68 -6 1 C-3 0 -3 0 0 0 Z " fill="#CC2B26" transform="translate(228,375)"/>
<path d="M0 0 C0.01981934 0.77714355 0.03963867 1.55428711 0.06005859 2.35498047 C0.15507009 5.86200691 0.26484559 9.36841794 0.375 12.875 C0.4059375 14.09832031 0.436875 15.32164062 0.46875 16.58203125 C0.50742188 17.74863281 0.54609375 18.91523438 0.5859375 20.1171875 C0.6173584 21.19597168 0.6487793 22.27475586 0.68115234 23.38623047 C0.74676322 26.15761654 0.74676322 26.15761654 3 28 C-0.3 28 -3.6 28 -7 28 C-6.34 27.34 -5.68 26.68 -5 26 C-4.70619429 23.81975801 -4.70619429 23.81975801 -4.76953125 21.31640625 C-4.77146484 20.38892578 -4.77339844 19.46144531 -4.77539062 18.50585938 C-4.78763672 17.53455078 -4.79988281 16.56324219 -4.8125 15.5625 C-4.8134668 14.11133789 -4.8134668 14.11133789 -4.81445312 12.63085938 C-4.80978714 7.22866682 -4.80978714 7.22866682 -6 2 C-2.25 0 -2.25 0 0 0 Z " fill="#D42C26" transform="translate(216,374)"/>
<path d="M0 0 C0.33 1.32 0.66 2.64 1 4 C-1.0650383 3.48374042 -3.09864625 2.96808504 -5.125 2.3125 C-5.74375 2.209375 -6.3625 2.10625 -7 2 C-9.4282022 3.99557113 -9.4282022 3.99557113 -9.3125 7.9375 C-9.23081662 10.43791894 -9.12109418 11.77205801 -7.9375 14 C-4.97912322 15.52690415 -2.26283401 15.18468872 1 15 C0 16.5 0 16.5 -2 18 C-5.17363717 18.46068927 -6.98550933 18.71411235 -10 18 C-13.0625 15.4375 -13.0625 15.4375 -15 12 C-15.2467339 7.3120559 -14.52583243 5.60278351 -11.4375 2.0625 C-7.71258464 -0.71079465 -4.50256945 -0.38815254 0 0 Z " fill="#D22B26" transform="translate(162,384)"/>
<path d="M0 0 C0.99 0 1.98 0 3 0 C3 1.65 3 3.3 3 5 C4.65 5 6.3 5 8 5 C8 5.66 8 6.32 8 7 C6.35 7 4.7 7 3 7 C3.05985379 9.29240007 3.14859027 11.58406206 3.25 13.875 C3.29640625 15.15117187 3.3428125 16.42734375 3.390625 17.7421875 C3.62555056 21.09188105 3.62555056 21.09188105 6.046875 22.4453125 C6.69140625 22.62835938 7.3359375 22.81140625 8 23 C8 23.99 8 24.98 8 26 C5.6875 26.25 5.6875 26.25 3 26 C0.28931466 23.49389469 0.00413739 22.05185532 -0.29296875 18.328125 C-0.27316751 16.96843965 -0.23759202 15.6089066 -0.1875 14.25 C-0.17396484 13.55261719 -0.16042969 12.85523438 -0.14648438 12.13671875 C-0.1112945 10.42414459 -0.05749155 8.71197059 0 7 C-0.66 7 -1.32 7 -2 7 C-2 6.34 -2 5.68 -2 5 C-1.34 5 -0.68 5 0 5 C0 3.35 0 1.7 0 0 Z " fill="#E6E6E5" transform="translate(336,377)"/>
<path d="M0 0 C2.91916538 -0.34751969 5.13195476 -0.53280018 7.69921875 1.04296875 C12.75482232 5.21720802 12.75482232 5.21720802 13.2734375 8.98828125 C13.46972622 13.48027315 13.51482633 15.34969305 10.625 19 C6.49660608 22.14544299 4.17150149 22.09576855 -1 22 C-1 21.67 -1 21.34 -1 21 C-0.0925 20.95875 0.815 20.9175 1.75 20.875 C5.20574058 20.2649387 5.20574058 20.2649387 7.375 17.3125 C9.12867059 13.73770995 9.67995126 11.90971976 9 8 C7.5 5.5 7.5 5.5 5 4 C1.832168 3.66551741 1.832168 3.66551741 -1 4 C-0.67 2.68 -0.34 1.36 0 0 Z " fill="#E5E5E5" transform="translate(294,381)"/>
<path d="M0 0 C0.06058594 1.13179688 0.12117187 2.26359375 0.18359375 3.4296875 C0.26799917 4.91147145 0.35264717 6.3932416 0.4375 7.875 C0.47681641 8.62136719 0.51613281 9.36773437 0.55664062 10.13671875 C0.71573624 14.19986864 0.71573624 14.19986864 2 18 C-0.64 18 -3.28 18 -6 18 C-5.98839844 17.08476562 -5.97679687 16.16953125 -5.96484375 15.2265625 C-5.95582031 14.03804688 -5.94679687 12.84953125 -5.9375 11.625 C-5.92589844 10.44164062 -5.91429687 9.25828125 -5.90234375 8.0390625 C-5.78533407 5.08078479 -5.78533407 5.08078479 -7 3 C-2.25 0 -2.25 0 0 0 Z " fill="#C82A26" transform="translate(205,384)"/>
<path d="M0 0 C3.00698793 1.50349397 3.58257459 4.0418948 5 7 C6.15016254 8.36222307 6.15016254 8.36222307 9.25 8.3125 C13.52452339 7.95628972 14.97574144 6.93261437 18 4 C18.33 5.32 18.66 6.64 19 8 C15.67824651 10.65740279 13.24662817 12.30902187 8.9375 12.5625 C5 12 5 12 2.0625 9.875 C-0.17204149 6.76018458 -0.82713473 4.80303588 -1 1 C-0.67 0.67 -0.34 0.34 0 0 Z " fill="#EDEDED" transform="translate(262,391)"/>
<path d="M0 0 C0.804375 0.495 1.60875 0.99 2.4375 1.5 C2.4375 3.15 2.4375 4.8 2.4375 6.5 C1.74269531 6.19320312 1.04789062 5.88640625 0.33203125 5.5703125 C-2.74911473 4.43099536 -5.63142908 3.87401091 -8.875 3.375 C-10.47794922 3.12363281 -10.47794922 3.12363281 -12.11328125 2.8671875 C-12.92152344 2.74601563 -13.72976563 2.62484375 -14.5625 2.5 C-14.8925 1.51 -15.2225 0.52 -15.5625 -0.5 C-10.16995798 -2.29751401 -5.23742109 -2.20522993 0 0 Z " fill="#1E1F1F" transform="translate(350.5625,231.5)"/>
<path d="M0 0 C3.375 -0.125 3.375 -0.125 7 0 C9 2 9 2 9.25 4.5 C9 7 9 7 7 9 C3.375 9.125 3.375 9.125 0 9 C0 6.03 0 3.06 0 0 Z " fill="#191A1A" transform="translate(244,378)"/>
<path d="M0 0 C1.98 0.99 1.98 0.99 4 2 C4 2.66 4 3.32 4 4 C8.455 4.99 8.455 4.99 13 6 C12.67 7.65 12.34 9.3 12 11 C10.3713449 10.57630928 8.74712622 10.1355377 7.125 9.6875 C6.22007812 9.44386719 5.31515625 9.20023438 4.3828125 8.94921875 C2 8 2 8 0 5 C-0.125 2.3125 -0.125 2.3125 0 0 Z " fill="#212222" transform="translate(253,236)"/>
<path d="M0 0 C0.99 0 1.98 0 3 0 C3 6.6 3 13.2 3 20 C2.01 20 1.02 20 0 20 C0 13.4 0 6.8 0 0 Z " fill="#F0F0F0" transform="translate(348,382)"/>
<path d="M0 0 C0.33 0 0.66 0 1 0 C1.12117188 0.62648438 1.24234375 1.25296875 1.3671875 1.8984375 C1.53476562 2.71570313 1.70234375 3.53296875 1.875 4.375 C2.03742188 5.18710937 2.19984375 5.99921875 2.3671875 6.8359375 C2.86658932 9.18673923 2.86658932 9.18673923 5 11 C7.32275177 11.40047444 9.65739357 11.7397104 12 12 C11.67 12.66 11.34 13.32 11 14 C3.83116883 14.47792208 3.83116883 14.47792208 0.5 12.5625 C-1.68759225 8.82536325 -1.52472964 5.24084775 -1 1 C-0.67 0.67 -0.34 0.34 0 0 Z " fill="#F5F5F5" transform="translate(312,388)"/>
<path d="M0 0 C1.32 0 2.64 0 4 0 C5.96062113 2.57681635 7.5535447 5.1070894 9 8 C8.01 8.99 7.02 9.98 6 11 C5.01524786 9.90081184 4.03739527 8.7954398 3.0625 7.6875 C2.51722656 7.07261719 1.97195313 6.45773437 1.41015625 5.82421875 C0 4 0 4 -1 1 C-0.67 0.67 -0.34 0.34 0 0 Z " fill="#1E1F1F" transform="translate(323,260)"/>
<path d="M0 0 C0.99 0.33 1.98 0.66 3 1 C3 7.27 3 13.54 3 20 C2.67 20 2.34 20 2 20 C1.67 14.72 1.34 9.44 1 4 C0.01 6.64 -0.98 9.28 -2 12 C-2.66 12 -3.32 12 -4 12 C-3.52309796 10.37433394 -3.04340334 8.74948689 -2.5625 7.125 C-2.29566406 6.22007812 -2.02882812 5.31515625 -1.75390625 4.3828125 C-1 2 -1 2 0 0 Z " fill="#A62824" transform="translate(136,380)"/>
<path d="M0 0 C3.27152729 0.97261622 4.74545129 1.65767587 6.8125 4.4375 C8 7 8 7 8 10 C6.68 10 5.36 10 4 10 C1.55592611 6.83175607 0.56195765 3.93370357 0 0 Z " fill="#202020" transform="translate(165,153)"/>
<path d="M0 0 C0.99 0 1.98 0 3 0 C4.6875 2.5 4.6875 2.5 6 5 C4 7 4 7 0.7421875 7.1953125 C-0.53398437 7.17210937 -1.81015625 7.14890625 -3.125 7.125 C-5.04699219 7.09792969 -5.04699219 7.09792969 -7.0078125 7.0703125 C-8.48894531 7.03550781 -8.48894531 7.03550781 -10 7 C-9.67 6.34 -9.34 5.68 -9 5 C-5.7 5 -2.4 5 1 5 C0.34 4.67 -0.32 4.34 -1 4 C-0.67 2.68 -0.34 1.36 0 0 Z " fill="#471E1C" transform="translate(145,396)"/>
<path d="M0 0 C3.94726562 -0.42905061 6.61242079 -0.08466413 10 2 C10 2.99 10 3.98 10 5 C8.56208484 4.85831863 7.1246763 4.71148957 5.6875 4.5625 C4.88699219 4.48128906 4.08648437 4.40007812 3.26171875 4.31640625 C1 4 1 4 -2 3 C-1.34 2.01 -0.68 1.02 0 0 Z " fill="#E1E1E1" transform="translate(363,381)"/>
<path d="M0 0 C0.33 1.32 0.66 2.64 1 4 C-3.90924297 7.92739438 -6.73920552 8.43177893 -13 8 C-13 7.67 -13 7.34 -13 7 C-11.39125 6.9071875 -11.39125 6.9071875 -9.75 6.8125 C-5.30973605 5.85044281 -4.47357194 4.66455102 -2 1 C-1.34 0.67 -0.68 0.34 0 0 Z " fill="#DEDEDE" transform="translate(280,395)"/>
<path d="M0 0 C1.21236328 0.01353516 1.21236328 0.01353516 2.44921875 0.02734375 C3.37154297 0.04474609 3.37154297 0.04474609 4.3125 0.0625 C4.3125 0.7225 4.3125 1.3825 4.3125 2.0625 C2.0025 2.3925 -0.3075 2.7225 -2.6875 3.0625 C-1.0375 3.3925 0.6125 3.7225 2.3125 4.0625 C2.3125 4.3925 2.3125 4.7225 2.3125 5.0625 C-0.6575 4.7325 -3.6275 4.4025 -6.6875 4.0625 C-7.0175 3.0725 -7.3475 2.0825 -7.6875 1.0625 C-4.80538698 0.10179566 -2.98899956 -0.04331883 0 0 Z " fill="#3A3B3B" transform="translate(342.6875,229.9375)"/>
<path d="M0 0 C1.32 1.65 2.64 3.3 4 5 C3.01 5.33 2.02 5.66 1 6 C0.67 6.99 0.34 7.98 0 9 C-1.5625 6.6875 -1.5625 6.6875 -3 4 C-2.67 3.01 -2.34 2.02 -2 1 C-1.34 0.67 -0.68 0.34 0 0 Z " fill="#292A2A" transform="translate(165,148)"/>
<path d="M0 0 C0.66 0 1.32 0 2 0 C1.5359375 0.7734375 1.5359375 0.7734375 1.0625 1.5625 C-0.29059287 4.66665423 -0.61359424 7.65115007 -1 11 C-1.66 10.67 -2.32 10.34 -3 10 C-3.2295711 6.63295715 -3.33943529 4.58629732 -1.625 1.625 C-1.08875 1.08875 -0.5525 0.5525 0 0 Z " fill="#2A2B2B" transform="translate(267,385)"/>
<path d="M0 0 C0 3.09477914 -0.23479256 6.10446346 -0.5 9.1875 C-0.5928125 10.27417969 -0.685625 11.36085938 -0.78125 12.48046875 C-0.8534375 13.31191406 -0.925625 14.14335937 -1 15 C-1.33 15 -1.66 15 -2 15 C-2.06058594 14.22914063 -2.12117187 13.45828125 -2.18359375 12.6640625 C-2.26738281 11.66117187 -2.35117188 10.65828125 -2.4375 9.625 C-2.51871094 8.62726563 -2.59992188 7.62953125 -2.68359375 6.6015625 C-2.84965626 4.02072387 -2.84965626 4.02072387 -4 2 C-2.68 1.34 -1.36 0.68 0 0 Z " fill="#B02924" transform="translate(202,385)"/>
<path d="M0 0 C0.97791242 2.64036353 1.03638105 3.87266632 0.25 6.625 C-1 9 -1 9 -4 11 C-3.5247412 9.35303396 -3.04468109 7.70745272 -2.5625 6.0625 C-2.29566406 5.14597656 -2.02882812 4.22945313 -1.75390625 3.28515625 C-1 1 -1 1 0 0 Z " fill="#281B1A" transform="translate(137,383)"/>
<path d="M0 0 C3.375 0.25 3.375 0.25 7 1 C8.4375 3.0625 8.4375 3.0625 9 5 C5.51694958 4.35499066 2.93797836 2.95865224 0 1 C0 0.67 0 0.34 0 0 Z " fill="#CFCFCF" transform="translate(381,381)"/>
<path d="M0 0 C-0.375 1.9375 -0.375 1.9375 -1 4 C-4.21451269 5.60725635 -7.43612536 5.05748185 -11 5 C-11 4.67 -11 4.34 -11 4 C-7.535 3.505 -7.535 3.505 -4 3 C-4 2.34 -4 1.68 -4 1 C-2 0 -2 0 0 0 Z " fill="#D3D3D3" transform="translate(373,398)"/>
<path d="M0 0 C2.475 0.99 2.475 0.99 5 2 C5 2.99 5 3.98 5 5 C3.68 5 2.36 5 1 5 C0.67 3.35 0.34 1.7 0 0 Z " fill="#1A1B1A" transform="translate(168,158)"/>
<path d="M0 0 C2.9719385 1.12451727 5.33440687 2.22293791 8 4 C5.69 4 3.38 4 1 4 C0.67 2.68 0.34 1.36 0 0 Z " fill="#F0F0F0" transform="translate(377,398)"/>
<path d="M0 0 C0.99 0.33 1.98 0.66 3 1 C2.67 2.32 2.34 3.64 2 5 C1.01 5 0.02 5 -1 5 C-0.67 3.35 -0.34 1.7 0 0 Z " fill="#CECECE" transform="translate(349,374)"/>
</svg>
